<?xml version="1.0" standalone="no"?>
<!DOCTYPE svg PUBLIC "-//W3C//DTD SVG 20010904//EN"
 "http://www.w3.org/TR/2001/REC-SVG-20010904/DTD/svg10.dtd">
<svg version="1.0" xmlns="http://www.w3.org/2000/svg"
 width="714.000000pt" height="714.000000pt" viewBox="0 0 714.000000 714.000000"
 preserveAspectRatio="xMidYMid meet">
<metadata>
Created by potrace 1.11, written by Peter Selinger 2001-2013
</metadata>
<g transform="translate(0.000000,714.000000) scale(0.100000,-0.100000)"
fill="#000000" stroke="none">
<path d="M5513 6010 c-361 -94 -624 -447 -767 -1025 -14 -55 -27 -113 -30
-130 -2 -16 -9 -53 -15 -81 -9 -47 -34 -221 -45 -324 -22 -192 -26 -496 -9
-618 15 -115 56 -284 151 -632 109 -400 136 -554 136 -780 0 -177 -11 -243
-60 -373 -123 -322 -508 -570 -875 -561 -365 10 -689 251 -811 605 -29 85 -32
105 -32 214 0 109 3 129 33 219 172 515 508 754 784 556 62 -45 140 -145 154
-200 45 -173 -115 -511 -360 -760 -92 -94 -116 -128 -97 -140 37 -23 220 92
343 213 141 140 232 278 281 428 35 106 41 145 40 259 0 88 -3 100 -36 170
-60 124 -183 241 -333 319 -76 39 -137 51 -245 47 -351 -14 -660 -368 -759
-871 -80 -402 -20 -778 162 -1013 57 -75 160 -167 240 -214 139 -83 376 -165
554 -193 113 -18 363 -13 458 8 404 91 728 350 939 747 140 266 207 533 201
805 -7 295 -86 550 -261 837 -40 67 -48 84 -31 73 68 -44 228 -57 382 -30 124
21 299 72 366 105 168 85 317 264 384 460 61 180 35 310 -66 326 -54 9 -106
-10 -233 -86 -263 -157 -436 -228 -585 -237 -70 -4 -96 -2 -143 15 -172 61
-225 185 -193 452 33 271 198 618 308 645 47 12 87 -15 227 -152 161 -158 183
-177 263 -226 168 -103 354 -105 552 -6 196 97 545 404 610 534 40 82 46 166
15 230 -42 87 -154 181 -331 279 -82 45 -85 42 -104 -86 -17 -110 -36 -170
-70 -213 -64 -85 -194 -86 -360 -3 -93 47 -148 91 -306 244 -80 78 -164 151
-187 163 -52 27 -140 27 -239 1z"/>
<path d="M168 5843 l-167 -168 0 -587 0 -587 167 -169 167 -170 658 2 c363 0
663 -2 668 -5 5 -3 8 -108 7 -249 l-3 -244 -665 1 -665 1 -167 -169 -168 -170
1 -169 0 -170 920 0 920 0 173 170 173 171 -3 247 c-1 136 -3 399 -3 584 l-1
338 -170 170 -170 170 -615 1 c-338 1 -639 2 -667 2 l-53 2 0 245 0 245 667 0
668 0 170 170 169 170 2 105 c1 58 1 133 1 168 l-2 62 -923 0 -922 0 -167
-167z"/>
<path d="M2340 5837 l0 -173 149 -145 c82 -79 159 -153 171 -164 22 -20 37
-20 941 -20 l920 0 168 170 169 170 0 168 -1 167 -1258 0 -1259 0 0 -173z"/>
<path d="M4492 4921 c-122 -43 -224 -80 -227 -82 -2 -3 77 -86 176 -184 162
-163 179 -177 172 -145 -5 19 -8 76 -8 125 0 111 27 204 85 293 42 65 45 72
33 71 -5 0 -108 -35 -231 -78z"/>
<path d="M2508 4668 l-168 -171 0 -1003 0 -1004 87 0 86 0 169 170 168 169 0
662 c0 364 2 664 5 667 2 3 190 5 417 5 l412 0 168 169 168 168 0 170 0 170
-672 -1 -673 -1 -167 -170z"/>
<path d="M4409 4307 c-119 -62 -217 -116 -219 -122 -2 -9 381 -307 388 -301 1
2 -4 32 -13 67 -17 76 -20 217 -4 291 6 29 24 81 40 116 15 34 27 62 26 61 -1
0 -99 -50 -218 -112z"/>
<path d="M4594 3837 c-12 -14 -245 -232 -312 -293 l-45 -41 144 -56 c274 -107
324 -125 328 -122 2 3 -3 15 -12 28 -61 93 -102 268 -95 404 3 51 5 93 4 93
-1 -1 -6 -6 -12 -13z"/>
</g>
</svg>
