<?xml version="1.0" standalone="no"?>
<!DOCTYPE svg PUBLIC "-//W3C//DTD SVG 20010904//EN"
 "http://www.w3.org/TR/2001/REC-SVG-20010904/DTD/svg10.dtd">
<svg version="1.0" xmlns="http://www.w3.org/2000/svg"
 width="1000.000000pt" height="1000.000000pt" viewBox="0 0 1000.000000 1000.000000"
 preserveAspectRatio="xMidYMid meet">
<metadata>
Created by potrace 1.14, written by Peter Selinger 2001-2017
</metadata>
<g transform="translate(0.000000,1000.000000) scale(0.100000,-0.100000)"
fill="#000000" stroke="none">
<path d="M7420 7026 c-94 -20 -189 -57 -272 -106 -93 -55 -247 -208 -317 -315
-101 -155 -194 -379 -251 -601 l-24 -91 -145 -48 -146 -48 118 -111 117 -111
-12 -109 -12 -108 -182 -92 -182 -91 173 -125 173 -125 6 -65 c14 -155 22
-140 -130 -274 -73 -65 -132 -122 -129 -125 2 -4 70 -31 150 -61 110 -40 149
-59 155 -74 20 -48 44 -368 44 -581 0 -251 -14 -354 -70 -524 -79 -238 -207
-404 -427 -552 -226 -152 -515 -243 -707 -223 -136 13 -235 61 -324 154 -94
99 -137 219 -137 385 0 118 10 177 52 305 69 211 174 387 309 520 91 89 159
136 260 177 116 46 263 46 366 -1 73 -33 157 -119 194 -198 56 -119 35 -270
-69 -483 -77 -157 -160 -272 -303 -421 -65 -68 -118 -127 -118 -133 0 -49 186
82 322 228 255 271 387 641 307 856 -44 119 -145 232 -270 300 -134 73 -391
72 -557 -1 -155 -69 -368 -255 -476 -417 -115 -172 -206 -383 -247 -572 -7
-33 -13 -121 -13 -195 0 -145 16 -225 68 -343 94 -214 308 -402 541 -477 98
-32 331 -39 460 -15 338 63 657 269 886 575 220 292 414 809 458 1222 21 190
10 489 -25 674 l-7 37 31 -22 c60 -42 110 -54 232 -54 168 -1 438 57 564 120
143 71 280 211 359 368 63 125 85 279 51 350 -16 34 -65 65 -103 65 -39 0
-116 -32 -216 -90 -276 -160 -460 -230 -620 -238 -85 -3 -108 -1 -156 17 -67
26 -142 88 -170 142 -62 122 -31 390 74 649 72 178 159 291 234 306 50 10 98
-22 233 -151 157 -152 197 -183 290 -234 216 -116 444 -88 705 89 192 130 377
292 450 395 101 141 96 251 -15 365 -85 87 -342 239 -359 212 -4 -7 -15 -58
-24 -113 -38 -229 -118 -302 -294 -265 -157 32 -283 111 -481 300 -78 75 -160
145 -183 157 -53 27 -127 32 -209 15z"/>
<path d="M1186 6516 l-226 -234 0 -379 0 -379 228 -197 227 -196 728 -1 727 0
0 -345 0 -345 -923 0 -922 0 -233 -233 -232 -232 0 -118 0 -117 1273 0 1272 0
239 232 239 232 -8 581 -7 580 -230 225 c-137 133 -242 228 -257 231 -14 4
-342 7 -728 8 l-703 1 0 110 0 110 725 0 725 0 240 227 c215 203 240 230 240
258 0 18 -3 73 -6 123 l-7 92 -1077 0 -1078 0 -226 -234z"/>
<path d="M3780 6628 l1 -123 233 -227 234 -228 924 0 923 0 233 233 232 232 0
118 0 117 -1390 0 -1390 0 0 -122z"/>
<path d="M4008 5586 l-228 -233 0 -1272 0 -1271 118 0 117 0 233 233 232 232
0 928 0 927 378 0 379 0 231 197 232 198 0 147 0 148 -732 -1 -733 -1 -227
-232z"/>
</g>
</svg>
