<svg width="1000" height="1000" xmlns="http://www.w3.org/2000/svg"><g transform="translate(3 3)" fill="none"><circle stroke="#979797" stroke-width="6" fill="#FFF" cx="497" cy="497" r="497"/><g fill="#B91818"><path d="M702.65 535.46c11.528 56.416 1.918 113.904-28.83 172.462-21.155 40.287-63.25 75.822-112.025 80.116-23.223 2.044-48.522-1.374-72.208-24.823-60.683-60.074 5.345-143.383 6.816-145.109 13.804-16.202 28.132-27.606 42.983-34.212 11.669-5.07 31.612-7.114 46.637-2.776 9.616 2.776 41.677 20.402 37.21 54.24-9.005 68.221-91.073 109.04-57.666 78.528 33.407-30.51 50.53-74.43 43.07-91.683-20.706-47.884-91.637-31.866-116.459 52.814-16.54 56.427 24.032 104.15 101.528 63.375 81.747-43.013 61.765-128.542 55.143-195.74-.162-1.64-.321-3.267-.477-4.884-1.323-13.687-2.403-26.53-2.403-37.99 0-68.301 16.598-195.076 104.531-203.677 21.945-2.146 31.833 30.48 67.444 45.09 51.044 20.942 36.005-39.823 45.362-35.16 55.392 27.609 61.225 48.11-8.337 97.11-69.563 48.998-99.341-22.629-120.102-28.81-20.76-6.18-49.951 76.127-33.573 98.02 16.377 21.893 46.009 18.267 97.083-12.753s32.908 59.193-23.302 75.862c-37.473 11.112-61.615 11.112-72.426 0h.001Z"/><path d="m610.953 480.358 46.736-22.926c-4.696 7.664-7.45 15.925-8.258 24.782-.81 8.856.32 18.354 3.39 28.493l-41.868-30.35v.001Zm8.214 71.63 38.326-34.373c-1.816 8.752-1.816 17.6 0 26.543 1.815 8.944 5.367 17.594 10.656 25.952l-48.982-18.122Zm7.49-133.736 49.613-16.474c-6.658 8.089-11.01 16.381-13.06 24.877-2.048 8.497-1.882 17.573.497 27.23l-37.05-35.633Z"/></g><path d="M609.667 394.53H424.333L378 349.124V325h278v23.176l-46.333 46.353v.001ZM447.5 487.234v185.412L401.167 719H378V464.387l46.333-46.681h145.334v29.898l-46.334 39.631H447.5v-.001Zm-160.193 69.304v-69.461H141.882L96 447.484v-76.176L141.882 325h214.96L358 349.481l-47.515 44.98H165.06v22.383l145.425.771 46.356 46.308L358 579.693 310.485 626H56v-23.38l45.882-46.082h185.425Z" fill="#000"/></g></svg>