<svg width="512" height="512" viewBox="0 0 512 512" xmlns="http://www.w3.org/2000/svg"><g fill="#4B5157" fill-rule="evenodd"><path d="M200 264c-17.12 0-31 13.88-31 31 0 17.12 13.88 31 31 31 17.12 0 31-13.88 31-31 0-17.12-13.88-31-31-31M301 264c-17.12 0-31 13.88-31 31 0 17.12 13.88 31 31 31 17.12 0 31-13.88 31-31 0-17.12-13.88-31-31-31M200 164c-17.12 0-31 13.88-31 31 0 17.12 13.88 31 31 31 17.12 0 31-13.88 31-31 0-17.12-13.88-31-31-31M301 164c-17.12 0-31 13.88-31 31 0 17.12 13.88 31 31 31 17.12 0 31-13.88 31-31 0-17.12-13.88-31-31-31"/><path d="M62.503 246.17c0-104.175 84.452-188.626 188.627-188.626 104.176 0 188.627 84.45 188.627 188.627 0 104.176-84.45 188.628-188.627 188.628-104.175 0-188.627-84.452-188.627-188.627m433.223 211.254l-62.046-62.046c33.262-40.646 53.234-92.59 53.234-149.207 0-130.218-105.565-235.783-235.784-235.783-130.22 0-235.784 105.565-235.784 235.784 0 130.22 105.565 235.785 235.784 235.785 56.617 0 108.56-19.973 149.207-53.234l62.046 62.047c9.17 9.17 24.173 9.17 33.343 0 9.17-9.17 9.17-24.173 0-33.343"/></g></svg>
