<svg xmlns="http://www.w3.org/2000/svg" width="16" height="16" viewBox="0 0 16 16">
    <path fill="#75889D" fill-rule="nonzero" d="M14.83 0H1.17C.491 0 0 .492 0 1.17v13.66C0 15.447.554 16 1.17 16h13.66c.678 0 1.17-.492 1.17-1.17V1.17C16 .491 15.446 0 14.83 0zM4.924 13.538H2.462V6.154h2.461v7.384zM3.693 5.17c-.8 0-1.478-.677-1.478-1.477s.677-1.477 1.477-1.477 1.477.677 1.477 1.477S4.492 5.17 3.692 5.17zm9.845 8.37h-2.461V9.845c0-.984-.246-1.97-1.23-1.97-.985 0-1.232.986-1.232 1.97v3.692H6.154V6.154h2.461v.861h.123c.308-.615 1.108-1.107 2.031-1.107 2.277 0 2.77 1.477 2.77 3.323v4.307z"/>
</svg>
