<svg xmlns="http://www.w3.org/2000/svg" width="200" height="36" viewBox="0 0 200 36">
    <path fill="#555C62" fill-rule="evenodd" d="M156.068 7.683c.183-.186.397-.335.64-.447a2.053 2.053 0 0 1 1.648 0c.262.116.492.272.69.468l4.258-4.316a2.421 2.421 0 0 1-.207-.38 2.063 2.063 0 0 1-.17-.832 2.1 2.1 0 0 1 .17-.846c.114-.262.265-.491.453-.688.188-.196.408-.352.66-.468a2.053 2.053 0 0 1 1.648 0c.263.116.493.272.691.468.198.197.354.426.468.688a2.1 2.1 0 0 1 .17.846c0 .292-.057.57-.17.831-.114.262-.27.491-.468.688a2.276 2.276 0 0 1-.69.468 2.053 2.053 0 0 1-1.648 0 2.195 2.195 0 0 1-.343-.195l-4.358 4.417.003.007a2.1 2.1 0 0 1 .171.846c0 .293-.057.57-.17.832-.114.262-.27.49-.468.687a2.276 2.276 0 0 1-.69.469 2.053 2.053 0 0 1-1.648 0 2.143 2.143 0 0 1-.661-.469 2.323 2.323 0 0 1-.453-.687 2.063 2.063 0 0 1-.17-.832 2.1 2.1 0 0 1 .182-.872l-3.827-3.878a2.333 2.333 0 0 1-.39.219 2.053 2.053 0 0 1-1.649 0 2.195 2.195 0 0 1-.342-.196l-4.426 4.486c.114.146.21.306.285.482a2.1 2.1 0 0 1 .171.846c0 .292-.057.57-.17.831-.114.262-.27.491-.468.688a2.276 2.276 0 0 1-.69.468 2.053 2.053 0 0 1-1.648 0 2.143 2.143 0 0 1-.661-.468 2.323 2.323 0 0 1-.453-.688 2.063 2.063 0 0 1-.17-.831 2.1 2.1 0 0 1 .17-.846c.114-.262.265-.491.453-.688.188-.196.408-.352.66-.468a2.053 2.053 0 0 1 1.648 0c.093.04.181.086.266.137l4.468-4.53a2.421 2.421 0 0 1-.206-.38 2.063 2.063 0 0 1-.17-.83 2.1 2.1 0 0 1 .17-.847c.114-.262.265-.491.453-.687.188-.197.408-.353.66-.469a2.053 2.053 0 0 1 1.648 0c.263.116.493.272.69.469.199.196.354.425.468.687a2.1 2.1 0 0 1 .17.846c0 .293-.056.57-.17.832-.056.128-.122.249-.198.361l3.72 3.77zM22.744 8.753v21.761h-3.059V15.6a17.564 17.564 0 0 1 .09-1.662L12.9 26.857c-.267.534-.678.801-1.232.801h-.49c-.564 0-.975-.267-1.232-.8L2.969 13.905a17.402 17.402 0 0 1 .09 1.693v14.915H0V8.754h2.598c.307 0 .544.027.713.082.168.056.321.225.46.507l6.858 12.648c.149.292.29.592.424.9.133.307.254.622.363.944.12-.322.245-.642.379-.96.133-.317.275-.622.423-.914l6.755-12.618c.138-.282.292-.451.46-.507.168-.055.406-.083.713-.083h2.598zm3.265 8.493c1.712-1.622 3.75-2.433 6.116-2.433.87 0 1.645.144 2.323.43a4.649 4.649 0 0 1 1.708 1.217c.46.524.811 1.146 1.054 1.867.242.72.363 1.518.363 2.395v9.792h-1.425c-.307 0-.54-.047-.698-.143-.158-.096-.292-.29-.4-.582l-.312-1.254c-.386.352-.767.667-1.143.944a7.184 7.184 0 0 1-1.166.703c-.4.191-.831.335-1.291.43-.46.096-.968.144-1.522.144a5.541 5.541 0 0 1-1.715-.257 3.746 3.746 0 0 1-1.373-.778 3.68 3.68 0 0 1-.913-1.292c-.223-.514-.334-1.118-.334-1.813 0-.595.156-1.174.468-1.738.312-.564.826-1.07 1.544-1.52.717-.447 1.662-.818 2.835-1.11 1.173-.292 2.62-.458 4.343-.498v-1.028c0-1.108-.233-1.934-.698-2.478-.465-.544-1.148-.816-2.049-.816-.613 0-1.128.078-1.544.234a6.914 6.914 0 0 0-1.084.506c-.306.181-.579.35-.816.506-.238.156-.49.235-.757.235a.897.897 0 0 1-.557-.174 1.43 1.43 0 0 1-.378-.431l-.58-1.058zm8.462 6.529c-1.139.04-2.099.133-2.88.28-.782.145-1.416.332-1.9.558-.486.227-.835.496-1.047.809-.213.312-.32.655-.32 1.027 0 .363.057.673.171.93.114.257.272.468.475.634.203.167.44.288.713.363.272.076.571.113.898.113.831 0 1.546-.158 2.145-.476.599-.317 1.18-.778 1.745-1.382v-2.856zm9.648-15.626v22.365h-3.192V8.15h3.192zm6.769 0v22.365h-3.192V8.15h3.192zm14.191 8.311c0 .232-.037.459-.111.68-.074.222-.18.408-.32.56l-7.675 10.29h7.854v2.524h-11.55v-1.36c0-.15.035-.332.104-.544a2.19 2.19 0 0 1 .312-.604l7.734-10.382h-7.705V15.1H65.08v1.36zm4.483 6.604c.04.877.173 1.635.4 2.275.228.64.532 1.17.913 1.594a3.55 3.55 0 0 0 1.366.944c.53.207 1.121.31 1.774.31.624 0 1.163-.073 1.618-.219a7.52 7.52 0 0 0 1.188-.484c.337-.176.624-.337.861-.483.238-.146.455-.22.653-.22.258 0 .456.102.594.303l.906 1.194a5.779 5.779 0 0 1-1.277 1.148c-.475.313-.98.567-1.514.763a8.432 8.432 0 0 1-1.648.424c-.564.085-1.114.128-1.648.128-1.05 0-2.021-.179-2.917-.536a6.48 6.48 0 0 1-2.33-1.58c-.66-.695-1.174-1.556-1.545-2.584-.371-1.027-.557-2.211-.557-3.551a8.82 8.82 0 0 1 .498-2.992 7.163 7.163 0 0 1 1.425-2.418 6.694 6.694 0 0 1 2.256-1.625c.886-.397 1.888-.596 3.007-.596.93 0 1.791.153 2.583.46a5.654 5.654 0 0 1 2.049 1.353c.574.594 1.021 1.322 1.343 2.184.322.861.483 1.84.483 2.939 0 .504-.055.841-.164 1.012-.109.172-.307.257-.594.257h-9.723zm7.615-1.994c0-.545-.076-1.05-.23-1.52a3.573 3.573 0 0 0-.675-1.223 3.083 3.083 0 0 0-1.106-.816c-.44-.197-.948-.295-1.522-.295-1.158 0-2.068.337-2.731 1.012-.664.675-1.084 1.622-1.262 2.842h7.526zm7.72 1.994c.039.877.172 1.635.4 2.275.228.64.532 1.17.913 1.594a3.55 3.55 0 0 0 1.366.944c.53.207 1.12.31 1.774.31.623 0 1.163-.073 1.618-.219a7.52 7.52 0 0 0 1.188-.484c.336-.176.623-.337.86-.483.238-.146.456-.22.654-.22.257 0 .455.102.594.303l.905 1.194a5.779 5.779 0 0 1-1.276 1.148c-.475.313-.98.567-1.515.763a8.432 8.432 0 0 1-1.648.424c-.564.085-1.113.128-1.647.128-1.05 0-2.022-.179-2.918-.536a6.48 6.48 0 0 1-2.33-1.58c-.659-.695-1.173-1.556-1.544-2.584-.371-1.027-.557-2.211-.557-3.551a8.82 8.82 0 0 1 .497-2.992 7.163 7.163 0 0 1 1.425-2.418 6.694 6.694 0 0 1 2.257-1.625c.886-.397 1.888-.596 3.006-.596.93 0 1.792.153 2.583.46a5.654 5.654 0 0 1 2.05 1.353c.573.594 1.021 1.322 1.343 2.184.321.861.482 1.84.482 2.939 0 .504-.054.841-.163 1.012-.109.172-.307.257-.594.257h-9.724zm7.615-1.994c0-.545-.077-1.05-.23-1.52a3.573 3.573 0 0 0-.676-1.223 3.083 3.083 0 0 0-1.106-.816c-.44-.197-.947-.295-1.521-.295-1.158 0-2.069.337-2.732 1.012-.663.675-1.084 1.622-1.262 2.842h7.527zm16.447 9.444h-3.489V8.754h3.489v21.76zm6.813-13.374a9.738 9.738 0 0 1 1.017-.929 6.754 6.754 0 0 1 1.12-.718 5.927 5.927 0 0 1 1.263-.468c.445-.111.93-.166 1.454-.166.832 0 1.562.14 2.19.423.629.282 1.158.68 1.589 1.194.43.513.754 1.13.972 1.85a8.2 8.2 0 0 1 .327 2.38v9.808h-3.177v-9.807c0-1.038-.235-1.844-.705-2.418-.47-.574-1.186-.861-2.146-.861-.712 0-1.373.166-1.982.498a6.815 6.815 0 0 0-1.714 1.36v11.228h-3.192V15.1h1.93c.435 0 .713.207.831.62l.223 1.42zm22.282.756a.802.802 0 0 1-.267.302.7.7 0 0 1-.371.09c-.168 0-.351-.052-.55-.158-.197-.106-.43-.224-.697-.355a5.954 5.954 0 0 0-.943-.355 4.537 4.537 0 0 0-1.27-.159c-.395 0-.754.048-1.075.144a2.405 2.405 0 0 0-.817.408 1.838 1.838 0 0 0-.512.62 1.678 1.678 0 0 0-.178.763c0 .362.109.665.326.906.218.242.505.451.861.627.357.177.762.335 1.218.477.455.14.92.292 1.395.453.475.161.94.347 1.396.559.455.212.86.471 1.217.778.356.308.643.68.861 1.119.218.438.327.97.327 1.594 0 .725-.129 1.395-.386 2.01a4.512 4.512 0 0 1-1.129 1.602c-.494.453-1.11.806-1.848 1.057-.737.252-1.58.378-2.531.378a7.92 7.92 0 0 1-1.522-.143 8.631 8.631 0 0 1-1.395-.393 7.381 7.381 0 0 1-1.232-.597 6.495 6.495 0 0 1-1.017-.756l.742-1.239c.089-.151.2-.27.334-.355a.904.904 0 0 1 .497-.129c.208 0 .414.068.616.204.203.136.44.285.713.446.272.161.601.31.987.446s.866.204 1.44.204c.475 0 .886-.058 1.232-.174.347-.116.634-.274.861-.476a1.91 1.91 0 0 0 .505-.687c.11-.257.164-.532.164-.824 0-.393-.11-.715-.327-.967a2.773 2.773 0 0 0-.869-.65 7.927 7.927 0 0 0-1.232-.483c-.46-.142-.928-.293-1.403-.454a14.55 14.55 0 0 1-1.403-.559 4.817 4.817 0 0 1-1.232-.808 3.687 3.687 0 0 1-.868-1.194c-.218-.469-.327-1.04-.327-1.715 0-.615.121-1.2.364-1.753a4.25 4.25 0 0 1 1.069-1.466c.47-.423 1.049-.758 1.737-1.005.688-.247 1.482-.37 2.382-.37 1.02 0 1.945.166 2.777.498.831.333 1.529.786 2.093 1.36l-.713 1.179zm6.813-2.796v15.414h-3.191V15.1h3.191zm16.641.56v1.208c0 .403-.237.65-.712.74l-1.515.258c.258.584.386 1.234.386 1.95 0 .755-.146 1.44-.437 2.054a4.622 4.622 0 0 1-1.21 1.572 5.43 5.43 0 0 1-1.841.997 7.449 7.449 0 0 1-2.316.348c-.317 0-.626-.018-.928-.053a9.804 9.804 0 0 1-.883-.143c-.287.17-.5.352-.639.544a.995.995 0 0 0-.208.589c0 .332.144.58.431.74.287.162.666.277 1.136.348.47.07 1.007.116 1.61.136.604.02 1.218.055 1.841.106.624.05 1.237.133 1.841.25.604.115 1.14.306 1.61.573.471.267.85.628 1.137 1.08.287.454.43 1.044.43 1.769 0 .665-.163 1.315-.49 1.95-.326.634-.799 1.198-1.418 1.692-.618.494-1.373.889-2.264 1.186-.89.297-1.905.446-3.043.446-1.128 0-2.11-.11-2.947-.332-.836-.222-1.534-.522-2.093-.9-.56-.377-.975-.813-1.247-1.307a3.15 3.15 0 0 1-.408-1.541c0-.726.225-1.345.675-1.859.45-.514 1.062-.917 1.834-1.209a2.602 2.602 0 0 1-1.002-.831c-.253-.353-.379-.816-.379-1.39 0-.454.163-.927.49-1.42.326-.495.816-.913 1.47-1.255a4.862 4.862 0 0 1-1.782-1.685c-.435-.7-.653-1.519-.653-2.456 0-.765.146-1.456.438-2.07.292-.615.7-1.139 1.225-1.572a5.586 5.586 0 0 1 1.863-.997 7.62 7.62 0 0 1 2.353-.348c1.306 0 2.444.277 3.414.831h4.231zm-7.645 7.011c.99 0 1.732-.257 2.227-.77.495-.514.742-1.184.742-2.01 0-.846-.247-1.516-.742-2.01-.495-.494-1.237-.74-2.227-.74-.98 0-1.72.246-2.22.74-.5.494-.75 1.164-.75 2.01 0 .403.065.776.194 1.118.128.343.316.637.564.884.247.247.557.438.928.574.37.136.799.204 1.284.204zm4.439 8.599c0-.343-.097-.617-.29-.824a1.924 1.924 0 0 0-.78-.483 5.52 5.52 0 0 0-1.142-.257 18.57 18.57 0 0 0-1.388-.121l-1.5-.076a15.151 15.151 0 0 1-1.477-.143 3.94 3.94 0 0 0-1.165.907c-.302.352-.453.76-.453 1.224 0 .302.077.584.23.846.153.262.39.489.713.68.321.191.732.343 1.232.453.5.111 1.1.167 1.803.167 1.406 0 2.46-.222 3.163-.665.702-.444 1.054-1.013 1.054-1.708zm8.49-14.341a8.044 8.044 0 0 1 2.049-1.504c.742-.378 1.608-.566 2.598-.566.831 0 1.561.14 2.19.423.628.282 1.158.68 1.588 1.194.43.513.755 1.13.973 1.85a8.2 8.2 0 0 1 .326 2.38v9.808h-3.177v-9.807c0-1.038-.235-1.844-.705-2.418-.47-.574-1.185-.861-2.145-.861-.713 0-1.373.166-1.982.498a6.815 6.815 0 0 0-1.715 1.36v11.228h-3.191V8.15h3.191v8.78zm17.68 13.827c-1.256 0-2.224-.36-2.902-1.08-.678-.72-1.017-1.736-1.017-3.045v-8.977h-1.662a.664.664 0 0 1-.46-.174c-.13-.115-.194-.29-.194-.52v-1.316l2.45-.362.698-4.458a.862.862 0 0 1 .252-.416.688.688 0 0 1 .475-.159h1.633v5.063h4.201v2.342h-4.201v8.75c0 .554.134.977.4 1.27.268.292.624.438 1.07.438.247 0 .46-.033.638-.099.178-.065.332-.136.46-.211.129-.076.24-.146.334-.212a.482.482 0 0 1 .275-.098c.178 0 .322.1.43.302l.95 1.587a5.157 5.157 0 0 1-1.751 1.02 6.219 6.219 0 0 1-2.079.355zm14.608-12.86a.802.802 0 0 1-.268.302.7.7 0 0 1-.37.09c-.169 0-.352-.052-.55-.158-.198-.106-.43-.224-.698-.355a5.954 5.954 0 0 0-.943-.355 4.537 4.537 0 0 0-1.269-.159c-.396 0-.754.048-1.076.144a2.405 2.405 0 0 0-.817.408 1.838 1.838 0 0 0-.512.62 1.678 1.678 0 0 0-.178.763c0 .362.109.665.327.906.217.242.504.451.86.627.357.177.763.335 1.218.477.455.14.92.292 1.396.453.475.161.94.347 1.395.559.455.212.861.471 1.217.778.357.308.644.68.861 1.119.218.438.327.97.327 1.594 0 .725-.129 1.395-.386 2.01a4.512 4.512 0 0 1-1.128 1.602c-.495.453-1.111.806-1.849 1.057-.737.252-1.58.378-2.53.378a7.92 7.92 0 0 1-1.522-.143 8.631 8.631 0 0 1-1.396-.393 7.381 7.381 0 0 1-1.232-.597 6.495 6.495 0 0 1-1.017-.756l.742-1.239c.09-.151.2-.27.334-.355a.904.904 0 0 1 .498-.129c.207 0 .413.068.616.204.203.136.44.285.712.446.272.161.602.31.988.446s.866.204 1.44.204c.475 0 .885-.058 1.232-.174.346-.116.633-.274.86-.476a1.91 1.91 0 0 0 .506-.687c.108-.257.163-.532.163-.824 0-.393-.109-.715-.327-.967a2.773 2.773 0 0 0-.868-.65 7.927 7.927 0 0 0-1.232-.483c-.46-.142-.928-.293-1.403-.454a14.55 14.55 0 0 1-1.403-.559 4.817 4.817 0 0 1-1.232-.808 3.687 3.687 0 0 1-.869-1.194c-.218-.469-.326-1.04-.326-1.715a4.25 4.25 0 0 1 1.433-3.219c.47-.423 1.048-.758 1.736-1.005.688-.247 1.482-.37 2.383-.37 1.02 0 1.945.166 2.776.498.831.333 1.529.786 2.093 1.36l-.712 1.179z"/>
</svg>
