<svg xmlns="http://www.w3.org/2000/svg" width="184" height="33" viewBox="0 0 184 33">
    <g fill="#194288" fill-rule="nonzero">
        <path d="M.118 8.145h5.126l4.786 13.086h.08l4.732-13.086h5.15v18.419H16.75V11.762h-.052l-5.592 14.802h-2.29L3.293 11.762h-.05v14.802H.119zM31.127 24.977h-.078a3.502 3.502 0 0 1-1.51 1.366 5.131 5.131 0 0 1-2.366.532 6.8 6.8 0 0 1-1.574-.19 4.672 4.672 0 0 1-1.509-.651 3.775 3.775 0 0 1-1.145-1.196 3.434 3.434 0 0 1-.455-1.835c0-.938.264-1.683.793-2.236a5.137 5.137 0 0 1 2.041-1.276 11.674 11.674 0 0 1 2.772-.586 32.474 32.474 0 0 1 2.977-.143v-.31c0-.78-.281-1.357-.845-1.73a3.577 3.577 0 0 0-2.016-.56 4.528 4.528 0 0 0-1.907.416 5.078 5.078 0 0 0-1.51 1.015l-1.613-1.908a7.058 7.058 0 0 1 2.459-1.482 8.359 8.359 0 0 1 2.823-.494c1.109 0 2.023.156 2.743.468.657.268 1.24.686 1.705 1.222.411.494.708 1.071.87 1.692.164.611.247 1.241.248 1.874v7.595h-2.903v-1.583zm-.054-4.11h-.702c-.503 0-1.032.022-1.587.064a6.928 6.928 0 0 0-1.526.286c-.428.127-.826.34-1.17.624a1.385 1.385 0 0 0-.468 1.106c-.01.261.056.519.19.742.13.198.304.363.508.481.218.125.455.213.702.26.257.052.518.078.78.078 1.076 0 1.891-.286 2.446-.859.554-.572.831-1.352.831-2.34l-.004-.443zM37.212 6.898h3.122v19.666h-3.122zM43.663 6.898h3.123v19.666h-3.123zM49.075 23.806l6.737-7.232h-6.426v-2.497h10.146v2.757l-6.764 7.18h7.076v2.55h-10.77zM73.994 20.477v.416c0 .139-.008.278-.024.416h-9.496c.029.432.148.853.351 1.236.199.367.469.691.793.954.335.272.713.488 1.118.637.416.156.857.235 1.301.234a4.172 4.172 0 0 0 1.978-.429c.531-.281.986-.687 1.326-1.182l2.081 1.663c-1.23 1.666-3.017 2.499-5.358 2.499a7.63 7.63 0 0 1-2.68-.456 6.325 6.325 0 0 1-2.12-1.286 5.816 5.816 0 0 1-1.405-2.043 7.039 7.039 0 0 1-.506-2.743 7.172 7.172 0 0 1 .506-2.745 6.104 6.104 0 0 1 3.487-3.46 7.01 7.01 0 0 1 2.613-.48 6.6 6.6 0 0 1 2.407.429 5.234 5.234 0 0 1 1.908 1.274 5.946 5.946 0 0 1 1.263 2.108c.322.952.477 1.953.457 2.958zm-3.12-1.402a3.858 3.858 0 0 0-.17-1.144 2.547 2.547 0 0 0-1.457-1.626 3.203 3.203 0 0 0-1.313-.248 3.514 3.514 0 0 0-2.38.845 3.08 3.08 0 0 0-1.08 2.173h6.4zM88.406 20.477v.416c0 .139-.01.278-.027.416h-9.494c.03.432.149.853.351 1.236.199.368.468.692.794.954.335.272.712.488 1.118.637a3.67 3.67 0 0 0 1.3.234 4.172 4.172 0 0 0 1.979-.429c.53-.281.985-.687 1.325-1.182l2.081 1.663c-1.232 1.666-3.018 2.499-5.358 2.499a7.63 7.63 0 0 1-2.68-.456 6.306 6.306 0 0 1-2.12-1.286 5.816 5.816 0 0 1-1.405-2.043 7.039 7.039 0 0 1-.507-2.743c-.013-.94.16-1.872.507-2.745a6.104 6.104 0 0 1 3.487-3.46 7.002 7.002 0 0 1 2.613-.48 6.6 6.6 0 0 1 2.408.429 5.234 5.234 0 0 1 1.907 1.274 5.913 5.913 0 0 1 1.261 2.108 8.7 8.7 0 0 1 .46 2.958zm-3.121-1.402a3.858 3.858 0 0 0-.17-1.144 2.56 2.56 0 0 0-1.457-1.626 3.203 3.203 0 0 0-1.313-.248 3.514 3.514 0 0 0-2.38.845 3.08 3.08 0 0 0-1.08 2.173h6.4zM97.043 8.145h3.277v18.419h-3.277zM103.702 14.077h2.964v2.003h.054a4.03 4.03 0 0 1 1.436-1.652 4.153 4.153 0 0 1 2.432-.715 4.692 4.692 0 0 1 2.098.43 4.12 4.12 0 0 1 1.431 1.13c.378.478.657 1.027.82 1.614.174.609.261 1.239.26 1.871v7.806h-3.12v-6.917a8.948 8.948 0 0 0-.077-1.144 3.113 3.113 0 0 0-.338-1.08 2.249 2.249 0 0 0-.715-.793 2.112 2.112 0 0 0-1.212-.311 2.67 2.67 0 0 0-1.299.297c-.35.187-.657.448-.898.763-.241.325-.422.69-.532 1.08a4.27 4.27 0 0 0-.19 1.234v6.867h-3.114V14.077zM125.162 17.406c-.31-.395-.7-.72-1.145-.954a3.22 3.22 0 0 0-1.587-.404 3.052 3.052 0 0 0-1.38.313c-.401.185-.649.597-.623 1.04-.02.456.26.873.69 1.027.654.26 1.328.465 2.015.61.485.109.962.249 1.429.419.464.166.902.398 1.3.688.39.284.716.647.954 1.067.257.475.382 1.009.365 1.548a4.03 4.03 0 0 1-.43 1.938 3.657 3.657 0 0 1-1.144 1.288 4.836 4.836 0 0 1-1.665.715 8.66 8.66 0 0 1-1.963.222 7.82 7.82 0 0 1-2.837-.534 5.97 5.97 0 0 1-2.289-1.526l2.057-1.925a4.06 4.06 0 0 0 1.352 1.118 3.86 3.86 0 0 0 1.847.442c.231 0 .462-.026.688-.078a2.32 2.32 0 0 0 .65-.246c.197-.11.363-.266.483-.456a1.29 1.29 0 0 0 .182-.702 1.145 1.145 0 0 0-.716-1.118 11.376 11.376 0 0 0-2.146-.677c-.464-.103-.92-.238-1.366-.402a4.494 4.494 0 0 1-1.184-.65 3.031 3.031 0 0 1-.832-1.002 3.182 3.182 0 0 1-.313-1.484 3.577 3.577 0 0 1 .43-1.795 3.683 3.683 0 0 1 1.133-1.234 4.988 4.988 0 0 1 1.587-.716 7.058 7.058 0 0 1 1.82-.234c.9 0 1.794.158 2.64.467.802.274 1.51.77 2.042 1.43l-2.044 1.805zM129.402 14.077h3.12v12.487h-3.12zM148.494 14.077v11.367a10.446 10.446 0 0 1-.416 3.052 5.896 5.896 0 0 1-1.287 2.314 5.822 5.822 0 0 1-2.201 1.477 8.607 8.607 0 0 1-3.148.52 10.411 10.411 0 0 1-1.6-.131 10.154 10.154 0 0 1-3.239-1.032 7.493 7.493 0 0 1-1.353-.885l1.795-2.42a6.468 6.468 0 0 0 2.055 1.315 6.224 6.224 0 0 0 2.315.454 4.832 4.832 0 0 0 1.887-.326 3.037 3.037 0 0 0 1.223-.9c.311-.401.533-.864.65-1.358a7.136 7.136 0 0 0 .191-1.717v-.914h-.052a4.418 4.418 0 0 1-1.73 1.406 5.55 5.55 0 0 1-2.354.486 6.09 6.09 0 0 1-2.55-.52 5.78 5.78 0 0 1-1.938-1.404 6.459 6.459 0 0 1-1.236-2.07 7.128 7.128 0 0 1-.44-2.51c-.006-.868.139-1.73.429-2.549a6.205 6.205 0 0 1 1.23-2.09 5.803 5.803 0 0 1 1.925-1.404 5.988 5.988 0 0 1 2.535-.521 5.662 5.662 0 0 1 2.48.545 4.17 4.17 0 0 1 1.82 1.692h.053v-1.877h2.956zm-6.659 2.185a3.54 3.54 0 0 0-1.526.312c-.429.197-.81.484-1.118.842a3.78 3.78 0 0 0-.702 1.259 4.752 4.752 0 0 0-.248 1.554 4.3 4.3 0 0 0 .248 1.452c.159.457.396.882.702 1.257a3.42 3.42 0 0 0 1.118.894c.465.23.979.346 1.498.338a3.552 3.552 0 0 0 2.718-1.192c.323-.369.575-.795.74-1.257a4.5 4.5 0 0 0 0-3.018 3.859 3.859 0 0 0-.74-1.27 3.46 3.46 0 0 0-1.158-.855 3.624 3.624 0 0 0-1.532-.316zM158.665 13.713a4.692 4.692 0 0 1 2.098.43 4.12 4.12 0 0 1 1.431 1.13c.378.478.657 1.027.82 1.614.174.609.261 1.239.26 1.871v7.806h-3.125v-6.867a8.656 8.656 0 0 0-.078-1.131 3.222 3.222 0 0 0-.326-1.066 2.125 2.125 0 0 0-.702-.794 2.098 2.098 0 0 0-1.21-.313 2.79 2.79 0 0 0-1.3.286 2.714 2.714 0 0 0-.91.763c-.246.325-.431.69-.548 1.08a4.208 4.208 0 0 0-.19 1.223v6.815h-3.112V6.898h3.117v8.921h.052c.137-.28.317-.538.534-.763a4.197 4.197 0 0 1 1.886-1.158 4.483 4.483 0 0 1 1.303-.185zM164.598 16.574v-2.497h2.184v-3.624h3.069v3.624h3.122v2.497h-3.122v5.801c-.017.478.086.952.3 1.38.199.363.644.545 1.335.545.226-.002.452-.023.675-.065.224-.036.442-.1.65-.19l.105 2.445a5.28 5.28 0 0 1-.99.246c-.36.059-.725.09-1.09.091a4.977 4.977 0 0 1-2.021-.355 3.073 3.073 0 0 1-1.236-.963 3.556 3.556 0 0 1-.624-1.404 8.174 8.174 0 0 1-.17-1.703v-5.828h-2.187zM181.557 17.406c-.31-.395-.7-.72-1.144-.954a3.22 3.22 0 0 0-1.587-.404 3.052 3.052 0 0 0-1.38.313c-.401.185-.649.597-.623 1.04-.02.456.26.873.69 1.027.653.26 1.327.465 2.015.61.481.11.955.249 1.419.419.464.166.902.398 1.3.688.39.284.716.647.955 1.067.256.475.381 1.009.364 1.548a4.03 4.03 0 0 1-.43 1.938 3.657 3.657 0 0 1-1.144 1.288 4.836 4.836 0 0 1-1.665.715 8.66 8.66 0 0 1-1.974.227 7.82 7.82 0 0 1-2.837-.534 5.97 5.97 0 0 1-2.289-1.526l2.056-1.924a4.06 4.06 0 0 0 1.353 1.117 3.86 3.86 0 0 0 1.846.443c.232 0 .463-.026.689-.078a2.32 2.32 0 0 0 .65-.246c.197-.11.363-.266.483-.456.13-.211.196-.455.19-.702a1.145 1.145 0 0 0-.715-1.118 11.376 11.376 0 0 0-2.146-.677c-.463-.103-.92-.238-1.365-.403a4.494 4.494 0 0 1-1.185-.65 3.031 3.031 0 0 1-.832-1.002 3.182 3.182 0 0 1-.312-1.484 3.577 3.577 0 0 1 .429-1.795c.275-.49.66-.911 1.123-1.23a4.988 4.988 0 0 1 1.587-.715 7.058 7.058 0 0 1 1.82-.235c.9 0 1.794.158 2.64.467.803.274 1.511.77 2.043 1.431l-2.024 1.795zM152.754.177c-1.16 0-2.099.94-2.099 2.099 0 .389.11.77.317 1.1l-4.49 4.49a2.085 2.085 0 0 0-2.442.035l-4.236-4.239a2.098 2.098 0 1 0-3.51.025l-4.147 4.147a2.098 2.098 0 1 0 .597.597l4.147-4.149a2.083 2.083 0 0 0 2.325-.015l4.262 4.261a2.098 2.098 0 1 0 3.591-.05l4.496-4.495a2.098 2.098 0 1 0 1.198-3.815l-.01.01z"/>
    </g>
</svg>
