<svg xmlns="http://www.w3.org/2000/svg" width="87" height="103" viewBox="0 0 87 103">
    <g fill="none" fill-rule="evenodd">
        <path fill="#E2E6EB" d="M64 0l23 23v72a8 8 0 0 1-8 8H15a8 8 0 0 1-8-8V8a8 8 0 0 1 8-8h49z"/>
        <path fill="#C4CDD5" d="M7 76h67v3a4 4 0 0 1-4 4H7v-7z"/>
        <rect width="74" height="34" y="45" fill="#E01053" rx="4"/>
        <path fill="#A7B3C0" d="M64 0l23 23H68a4 4 0 0 1-4-4V0z"/>
        <path fill="#FFF" fill-rule="nonzero" d="M21.908 63.309h-3.187v4.863c0 .695-.164 1.223-.492 1.582a1.61 1.61 0 0 1-1.243.539c-.523 0-.945-.178-1.265-.533-.32-.356-.48-.877-.48-1.565V54.953c0-.766.175-1.312.527-1.64.351-.329.91-.493 1.675-.493h4.465c1.32 0 2.336.102 3.047.305.703.195 1.31.52 1.822.973.512.453.9 1.007 1.166 1.664.266.656.399 1.394.399 2.215 0 1.75-.54 3.076-1.617 3.978-1.079.902-2.684 1.354-4.817 1.354zm-.844-7.875h-2.343v5.25h2.343c.82 0 1.506-.086 2.057-.258.55-.172.97-.453 1.26-.844.289-.39.433-.902.433-1.535 0-.758-.222-1.375-.668-1.852-.5-.508-1.527-.761-3.082-.761zm12.34-2.614h4.535c1.18 0 2.192.11 3.036.328a5.58 5.58 0 0 1 2.296 1.23c1.79 1.532 2.684 3.86 2.684 6.985 0 1.032-.09 1.973-.27 2.825a8.338 8.338 0 0 1-.831 2.302 7.156 7.156 0 0 1-1.442 1.834c-.46.414-.965.746-1.512.996a6.846 6.846 0 0 1-1.763.528c-.63.101-1.338.152-2.127.152h-4.535c-.633 0-1.11-.096-1.43-.287-.32-.192-.53-.461-.627-.809-.098-.347-.147-.799-.147-1.353V54.953c0-.75.168-1.293.504-1.629.336-.336.88-.504 1.63-.504zm1.348 2.754v11.66h2.637c.578 0 1.03-.015 1.359-.046.328-.032.668-.11 1.02-.235.351-.125.656-.3.914-.527 1.164-.985 1.746-2.68 1.746-5.086 0-1.695-.256-2.965-.768-3.809-.512-.844-1.142-1.38-1.892-1.611-.75-.23-1.657-.346-2.72-.346h-2.296zm24.527-.07h-6.855v4.394h5.73c.532 0 .928.12 1.19.358.261.238.392.556.392.955 0 .398-.132.715-.398.95-.266.234-.66.35-1.184.35h-5.73v5.66c0 .72-.162 1.253-.486 1.6-.325.348-.74.522-1.249.522-.515 0-.935-.176-1.26-.527-.324-.352-.486-.883-.486-1.594V54.953c0-.5.075-.908.223-1.224.148-.317.38-.547.697-.692.317-.144.721-.217 1.213-.217h8.203c.555 0 .967.123 1.237.37.27.246.404.568.404.966 0 .407-.135.733-.404.979-.27.246-.682.369-1.237.369z"/>
        <path fill="#C4CDD5" d="M87 23v17L70 23z"/>
    </g>
</svg>
