<svg xmlns="http://www.w3.org/2000/svg" width="18" height="19" viewBox="0 0 18 19">
    <g fill="#E8E9EB" fill-rule="nonzero">
        <path d="M7.542 15.17c-2.997.015-5.706-1.804-6.862-4.605A7.572 7.572 0 0 1 2.264 2.38a7.329 7.329 0 0 1 8.07-1.637c2.77 1.16 4.575 3.9 4.572 6.936.001 4.126-3.292 7.476-7.364 7.49zm0-13.545C5.124 1.611 2.935 3.075 2 5.335a6.111 6.111 0 0 0 1.27 6.608 5.915 5.915 0 0 0 6.512 1.329c2.236-.934 3.696-3.142 3.697-5.593.007-3.332-2.65-6.04-5.937-6.054z"/>
        <path d="M16.991 18.24l-4.927-4.966 1.008-1.022L18 17.216z"/>
    </g>
</svg>
