<svg width="243" height="36" xmlns="http://www.w3.org/2000/svg"><path d="M11.154 35c-.352 0-.656-.128-.912-.384a1.246 1.246 0 0 1-.384-.912V11.72H1.89c-.352 0-.656-.128-.912-.384a1.246 1.246 0 0 1-.384-.912V2.696c0-.352.128-.656.384-.912s.56-.384.912-.384h28.128c.352 0 .656.128.912.384s.384.56.384.912v7.728c0 .352-.128.656-.384.912s-.56.384-.912.384H22.05v21.984c0 .352-.128.656-.384.912s-.56.384-.912.384h-9.6zm24.012 0c-.352 0-.656-.12-.912-.36s-.384-.552-.384-.936V2.696c0-.352.128-.656.384-.912s.56-.384.912-.384h9.408c.352 0 .656.128.912.384s.384.56.384.912v10.08h7.776V2.696c0-.352.128-.656.384-.912s.56-.384.912-.384h9.408c.352 0 .656.128.912.384s.384.56.384.912v31.008c0 .352-.128.656-.384.912s-.56.384-.912.384h-9.408c-.352 0-.656-.128-.912-.384a1.246 1.246 0 0 1-.384-.912V23.336H45.87v10.368c0 .352-.128.656-.384.912s-.56.384-.912.384h-9.408zm36.156 0c-.352 0-.656-.128-.912-.384a1.246 1.246 0 0 1-.384-.912V2.696c0-.352.128-.656.384-.912s.56-.384.912-.384h24.624c.352 0 .656.128.912.384s.384.56.384.912v6.768c0 .352-.128.656-.384.912s-.56.384-.912.384h-14.4v3.024H94.89c.352 0 .656.128.912.384s.384.56.384.912v6.24c0 .352-.128.656-.384.912s-.56.384-.912.384H81.546v3.024H96.33c.352 0 .656.128.912.384s.384.56.384.912v6.768c0 .352-.128.656-.384.912s-.56.384-.912.384H71.322zm39.144 0c-.352 0-.656-.128-.912-.384a1.246 1.246 0 0 1-.384-.912V2.696c0-.352.128-.656.384-.912s.56-.384.912-.384h13.824c3.04 0 5.744.512 8.112 1.536 2.368 1.024 4.256 2.528 5.664 4.512 1.408 1.984 2.16 4.368 2.256 7.152.064 1.792.096 3.008.096 3.648 0 .608-.032 1.776-.096 3.504-.192 4.416-1.688 7.728-4.488 9.936-2.8 2.208-6.568 3.312-11.304 3.312h-14.064zm13.824-9.36c1.12 0 2.024-.328 2.712-.984.688-.656 1.064-1.624 1.128-2.904.064-.928.096-2.128.096-3.6 0-1.504-.032-2.688-.096-3.552-.064-1.28-.472-2.24-1.224-2.88-.752-.64-1.704-.96-2.856-.96h-2.88v14.88h3.12zM145.086 35c-.352 0-.656-.128-.912-.384a1.246 1.246 0 0 1-.384-.912V2.696c0-.352.128-.656.384-.912s.56-.384.912-.384h14.208c4.608 0 8.208 1.032 10.8 3.096 2.592 2.064 3.888 4.92 3.888 8.568 0 2.08-.464 3.912-1.392 5.496-.928 1.584-2.192 2.888-3.792 3.912l5.904 10.944c.096.192.144.368.144.528 0 .288-.104.536-.312.744a1.016 1.016 0 0 1-.744.312h-9.84c-.576 0-1.032-.136-1.368-.408-.336-.272-.568-.568-.696-.888l-4.128-9.168h-1.968v9.168c0 .352-.128.656-.384.912s-.56.384-.912.384h-9.408zm14.208-19.584c.704 0 1.248-.232 1.632-.696.384-.464.576-1.048.576-1.752s-.184-1.32-.552-1.848c-.368-.528-.92-.792-1.656-.792h-3.504v5.088h3.504zm33.18 20.064c-4.8 0-8.624-1.104-11.472-3.312-2.848-2.208-4.368-5.424-4.56-9.648-.032-.864-.048-2.256-.048-4.176 0-1.952.016-3.376.048-4.272.096-2.752.824-5.12 2.184-7.104 1.36-1.984 3.224-3.488 5.592-4.512 2.368-1.024 5.12-1.536 8.256-1.536s5.888.512 8.256 1.536c2.368 1.024 4.232 2.528 5.592 4.512 1.36 1.984 2.088 4.352 2.184 7.104.064 1.792.096 3.216.096 4.272s-.032 2.448-.096 4.176c-.192 4.224-1.712 7.44-4.56 9.648-2.848 2.208-6.672 3.312-11.472 3.312zm0-9.36c1.088 0 1.944-.32 2.568-.96.624-.64.952-1.616.984-2.928.064-1.856.096-3.216.096-4.08 0-.928-.032-2.256-.096-3.984-.032-1.312-.368-2.288-1.008-2.928-.64-.64-1.488-.96-2.544-.96s-1.904.32-2.544.96c-.64.64-.976 1.616-1.008 2.928-.032.864-.048 2.192-.048 3.984 0 1.792.016 3.152.048 4.08.032 1.312.36 2.288.984 2.928.624.64 1.48.96 2.568.96zM213.318 35c-.352 0-.656-.128-.912-.384a1.246 1.246 0 0 1-.384-.912V2.696c0-.352.128-.656.384-.912s.56-.384.912-.384h14.544c4.48 0 8.008.992 10.584 2.976 2.576 1.984 3.864 4.912 3.864 8.784 0 3.84-1.28 6.696-3.84 8.568-2.56 1.872-6.096 2.808-10.608 2.808h-3.36v9.168c0 .352-.128.656-.384.912s-.56.384-.912.384h-9.888zm14.304-19.344c.576 0 1.088-.216 1.536-.648.448-.432.672-1.08.672-1.944 0-.736-.176-1.376-.528-1.92-.352-.544-.912-.816-1.68-.816h-3.36v5.328h3.36z" fill="#FFF"/></svg>