<svg xmlns="http://www.w3.org/2000/svg" width="20" height="16" viewBox="0 0 20 16">
    <path fill="#75889D" fill-rule="evenodd" d="M17.626 2.543a4.202 4.202 0 0 0 1.107-.957c.312-.382.544-.813.696-1.293-.806.48-1.674.81-2.603.99A4.078 4.078 0 0 0 13.836 0c-.731 0-1.412.184-2.044.551a4.114 4.114 0 0 0-1.495 1.474 3.894 3.894 0 0 0-.548 2.026c0 .315.03.622.091.922-1.674-.09-3.25-.51-4.726-1.26A11.66 11.66 0 0 1 1.393.743a3.972 3.972 0 0 0-.548 2.025c0 .69.163 1.331.49 1.924a4.101 4.101 0 0 0 1.336 1.451A3.896 3.896 0 0 1 .8 5.626v.067c.015.63.164 1.227.445 1.79A4.024 4.024 0 0 0 2.42 8.9a3.993 3.993 0 0 0 1.667.754 4.292 4.292 0 0 1-1.827.068c.259.81.738 1.473 1.439 1.991a4.14 4.14 0 0 0 2.374.821c-.715.54-1.507.96-2.374 1.26-.868.3-1.774.45-2.717.45-.335 0-.662-.014-.982-.044a11.429 11.429 0 0 0 2.968 1.327c1.08.315 2.192.473 3.333.473 1.796 0 3.463-.345 5-1.035a11.083 11.083 0 0 0 3.653-2.7 12.037 12.037 0 0 0 2.238-3.691c.502-1.35.753-2.7.753-4.05v-.518A8.542 8.542 0 0 0 20 1.89a8.425 8.425 0 0 1-2.374.653z"/>
</svg>
